# xmcd
#
# Track frame offsets:
#	150
#	6755
#	24350
#	42265
#	59892
#	77907
#	95947
#	113529
#	133140
#	152890
#	172977
#	190922
#	209884
#	227925
#
# Disc length: 3278 seconds
#
# Revision: 1
# Processed by: cddbd v1.4PL0 Copyright (c) Steve Scherf et al.
# Submitted via: EasyCDDAExtractor 5.0.7
#
DISCID=c80ccc0e
DTITLE=김수진 - First Love Story
DYEAR=2000
DGENRE=Ballad
TTITLE0=Intro
TTITLE1=그대 뜻대로...
TTITLE2=Ending
TTITLE3=Temptation
TTITLE4=그랬다면
TTITLE5=비밀의 문
TTITLE6=Tears away
TTITLE7=꿈결같은 세상
TTITLE8=너에게 묻고 싶은 두 가지
TTITLE9=마지막 편지
TTITLE10=Ending(English)
TTITLE11=이룰 수 없는 사랑은 없다
TTITLE12=비밀의 문(Inst)
TTITLE13=그랬다면(Inst)
EXTD=
EXTT0=
EXTT1=
EXTT2=
EXTT3=
EXTT4=
EXTT5=
EXTT6=
EXTT7=
EXTT8=
EXTT9=
EXTT10=
EXTT11=
EXTT12=
EXTT13=
PLAYORDER=
